<?xml version="1.0" standalone="no"?>
<!DOCTYPE svg>
<svg version="1.0" xmlns="http://www.w3.org/2000/svg"
    width="1530.000000pt" height="297.000000pt" viewBox="0 0 1530.000000 297.000000"
    preserveAspectRatio="xMidYMid meet">

    <g transform="translate(0.000000,297.000000) scale(0.100000,-0.100000)"
        fill="#000000" stroke="none">
        <path
            d="M2839 2957 c-197 -56 -263 -310 -118 -456 55 -55 121 -81 209 -81 95
0 159 28 218 95 49 55 62 95 62 185 0 75 -29 148 -76 192 -67 63 -199 92 -295
65z" />
        <path
            d="M14 2851 c-2 -2 -4 -634 -4 -1403 l0 -1398 273 2 272 3 3 608 2 607
623 -2 622 -3 2 -605 2 -605 276 -3 275 -2 0 1400 0 1400 -25 6 c-29 7 -511 1
-519 -6 -2 -3 -6 -253 -8 -555 l-3 -550 -622 -3 -623 -2 0 549 c0 470 -2 550
-15 561 -11 9 -80 11 -270 9 -141 -2 -258 -6 -261 -8z" />
        <path
            d="M6775 2854 c-402 -32 -784 -131 -1055 -276 -186 -99 -392 -254 -491
-369 -160 -187 -236 -333 -284 -544 -41 -177 -38 -295 10 -495 113 -462 575
-864 1190 -1034 298 -82 488 -109 770 -110 264 0 417 20 700 90 475 118 862
363 1097 695 40 56 108 178 108 194 0 3 -117 5 -259 5 l-260 0 -75 -74 c-121
-120 -267 -213 -460 -296 -265 -112 -518 -160 -852 -160 -355 0 -632 58 -911
190 -181 86 -282 156 -403 279 -87 87 -114 122 -152 197 -58 112 -78 185 -78
285 0 115 15 173 71 288 46 93 63 116 158 211 109 110 213 186 348 253 189 95
397 162 598 193 165 25 569 26 735 1 358 -53 727 -220 934 -423 l66 -64 265 0
c146 0 265 2 265 5 0 13 -46 95 -91 162 -179 264 -461 477 -824 619 -319 124
-807 202 -1120 178z" />
        <path
            d="M13291 2820 c-130 -35 -216 -83 -306 -174 -141 -143 -193 -276 -202
-523 l-6 -142 -126 -3 -126 -3 -3 -197 -2 -197 127 -3 128 -3 5 -775 5 -775
240 0 240 0 5 775 5 775 190 2 190 2 3 200 2 201 -196 0 -197 0 6 93 c9 150
47 236 125 291 50 34 154 60 214 53 l48 -6 0 214 0 215 -147 -1 c-113 0 -166
-5 -222 -19z" />
        <path
            d="M3750 2545 l0 -275 -180 0 -180 0 0 -200 0 -200 178 -2 177 -3 6
-640 c6 -695 5 -686 65 -822 81 -184 255 -330 454 -378 145 -35 340 -30 478
12 l52 16 0 209 c0 195 -1 209 -17 204 -85 -24 -122 -30 -213 -30 -96 -1 -110
1 -163 28 -68 33 -116 92 -144 176 -17 51 -18 102 -18 640 l0 585 273 3 272 2
0 200 0 200 -275 0 -275 0 0 275 0 275 -245 0 -245 0 0 -275z" />
        <path
            d="M14240 2545 l0 -275 -180 0 -180 0 0 -200 0 -200 178 -2 177 -3 5
-640 c6 -629 6 -641 29 -720 36 -126 84 -209 176 -301 128 -130 270 -188 485
-201 111 -6 217 6 308 34 l52 17 0 208 c0 114 -3 208 -6 208 -3 0 -31 -8 -62
-17 -37 -11 -94 -17 -162 -17 -96 -1 -110 2 -162 27 -67 33 -110 80 -141 157
-22 55 -22 58 -22 650 l0 595 270 5 270 5 0 195 0 195 -272 3 -273 2 0 275 0
275 -245 0 -245 0 0 -275z" />
        <path d="M2710 1065 l0 -1025 220 0 220 0 0 1025 0 1025 -220 0 -220 0 0
-1025z" />
        <path
            d="M10152 2070 c-179 -25 -350 -116 -444 -238 l-33 -43 -3 130 -3 131
-244 0 -245 0 0 -1010 0 -1010 244 0 245 0 4 497 c4 527 4 524 56 683 49 151
157 293 268 353 116 62 270 70 421 22 39 -13 72 -20 72 -16 1 3 0 107 0 231 0
190 -3 227 -16 236 -35 27 -226 47 -322 34z" />
        <path
            d="M11352 2055 c-308 -57 -533 -224 -647 -482 -29 -63 -55 -162 -55
-206 l0 -27 226 2 227 3 13 52 c33 128 112 221 226 264 90 34 262 34 360 1 84
-29 157 -92 186 -160 25 -58 47 -181 34 -194 -5 -5 -118 -20 -253 -34 -409
-41 -579 -81 -737 -171 -98 -55 -196 -153 -236 -234 -79 -163 -71 -401 19
-549 45 -73 143 -166 220 -206 33 -18 96 -43 140 -55 70 -21 101 -24 250 -23
182 0 241 10 365 66 73 33 169 106 200 151 14 20 28 37 31 37 3 0 6 -51 6
-112 l1 -113 236 -3 236 -2 0 650 c0 653 -4 739 -37 845 -58 187 -210 349
-403 430 -178 76 -423 103 -608 70z m568 -1153 c0 -66 -33 -192 -67 -255 -42
-77 -127 -159 -205 -196 -182 -86 -399 -61 -483 57 -27 39 -30 51 -30 115 1
164 112 247 375 278 52 6 158 19 235 29 77 9 148 18 158 19 14 1 17 -7 17 -47z" />
    </g>
</svg>